/* XPM */
static char * logo_64_xpm[] = {
"64 64 256 2",
"  	c None",
". 	c #3D6073",
"+ 	c #3E6275",
"@ 	c #3F6376",
"# 	c #406477",
"$ 	c #416578",
"% 	c #43677A",
"& 	c #44687B",
"* 	c #45697C",
"= 	c #46697D",
"- 	c #3F6C7E",
"; 	c #476A7E",
"> 	c #486B7F",
", 	c #416E80",
"' 	c #496C80",
") 	c #446D85",
"! 	c #426F81",
"~ 	c #437082",
"{ 	c #4B6E82",
"] 	c #4C6F83",
"^ 	c #477088",
"/ 	c #457284",
"( 	c #4D7084",
"_ 	c #477385",
": 	c #49728A",
"< 	c #42758C",
"[ 	c #4F7285",
"} 	c #4A738B",
"| 	c #507387",
"1 	c #44768D",
"2 	c #45778E",
"3 	c #517588",
"4 	c #46788F",
"5 	c #53768A",
"6 	c #477990",
"7 	c #4D798B",
"8 	c #54778B",
"9 	c #487A91",
"0 	c #497B92",
"a 	c #517992",
"b 	c #55798C",
"c 	c #4E7B8D",
"d 	c #4A7C94",
"e 	c #4F7C8E",
"f 	c #587B8F",
"g 	c #4C7E95",
"h 	c #547C95",
"i 	c #4D7F96",
"j 	c #527F91",
"k 	c #4E8098",
"l 	c #5B7E92",
"m 	c #50829A",
"n 	c #5D8094",
"o 	c #568295",
"p 	c #588497",
"q 	c #5B839C",
"r 	c #638291",
"s 	c #608397",
"t 	c #598698",
"u 	c #668594",
"v 	c #5C889B",
"w 	c #64879B",
"x 	c #688796",
"y 	c #5E8A9D",
"z 	c #65899D",
"A 	c #6A8997",
"B 	c #6B8A99",
"C 	c #688BA0",
"D 	c #6C8B9A",
"E 	c #6E8D9C",
"F 	c #6A8EA2",
"G 	c #6F8E9D",
"H 	c #6C8FA4",
"I 	c #708F9E",
"J 	c #6D90A5",
"K 	c #6E91A6",
"L 	c #7291A0",
"M 	c #7392A1",
"N 	c #7093A7",
"O 	c #7295AA",
"P 	c #7796A5",
"Q 	c #7897A7",
"R 	c #7498AC",
"S 	c #7998A8",
"T 	c #7599AE",
"U 	c #7D98A2",
"V 	c #7E99A3",
"W 	c #7B9AA9",
"X 	c #7C9BAB",
"Y 	c #809BA4",
"Z 	c #7D9CAC",
"` 	c #7E9DAD",
" .	c #899CA8",
"..	c #839EA8",
"+.	c #7F9FAE",
"@.	c #80A0AF",
"#.	c #82A1B1",
"$.	c #86A1AB",
"%.	c #8CA0AB",
"&.	c #84A3B2",
"*.	c #88A3AD",
"=.	c #8EA2AD",
"-.	c #86A5B4",
";.	c #90A3AF",
">.	c #87A6B5",
",.	c #8AA6B0",
"'.	c #91A4B0",
").	c #88A8B7",
"!.	c #8CA8B2",
"~.	c #93A6B2",
"{.	c #8AA9B9",
"].	c #94A7B3",
"^.	c #95A8B4",
"/.	c #8BABBA",
"(.	c #8FABB5",
"_.	c #96A9B5",
":.	c #8DACBC",
"<.	c #97AAB6",
"[.	c #8EADBD",
"}.	c #98ABB7",
"|.	c #92ADB7",
"1.	c #8FAEBE",
"2.	c #99ACB8",
"3.	c #9CACB2",
"4.	c #90AFBF",
"5.	c #93AFB9",
"6.	c #96AEBF",
"7.	c #9AAEB9",
"8.	c #91B1C1",
"9.	c #9BAFBA",
"0.	c #95B1BB",
"a.	c #9CB0BB",
"b.	c #97B2BC",
"c.	c #9DB1BD",
"d.	c #98B3BD",
"e.	c #9BB2C3",
"f.	c #9EB2BE",
"g.	c #99B4BF",
"h.	c #A3B3B9",
"i.	c #9AB5C0",
"j.	c #A0B4C0",
"k.	c #A1B5C1",
"l.	c #9BB7C1",
"m.	c #A5B5BB",
"n.	c #A2B6C2",
"o.	c #9CB8C2",
"p.	c #ACB4BC",
"q.	c #A6B6BD",
"r.	c #9DB9C3",
"s.	c #A4B8C4",
"t.	c #9EBAC4",
"u.	c #A8B8BF",
"v.	c #A6B9C5",
"w.	c #A0BCC6",
"x.	c #A7BAC6",
"y.	c #AABAC0",
"z.	c #ABBBC1",
"A.	c #A8BCC8",
"B.	c #ACBCC3",
"C.	c #ADBDC4",
"D.	c #AABECA",
"E.	c #A4C0CA",
"F.	c #AEBEC5",
"G.	c #B4BDC5",
"H.	c #AFBFC6",
"I.	c #ACC0CC",
"J.	c #B0C0C7",
"K.	c #ADC1CD",
"L.	c #B1C2C8",
"M.	c #AFC2CE",
"N.	c #B8C1C9",
"O.	c #B3C3C9",
"P.	c #B0C4D0",
"Q.	c #B4C4CA",
"R.	c #B2C5D1",
"S.	c #B5C5CC",
"T.	c #B3C7D3",
"U.	c #BCC5CD",
"V.	c #B7C7CD",
"W.	c #B8C8CE",
"X.	c #B5C9D5",
"Y.	c #BFC7CF",
"Z.	c #B9C9D0",
"`.	c #C2C7CA",
" +	c #BACAD1",
".+	c #C3C8CB",
"++	c #C1C9D1",
"@+	c #BBCBD2",
"#+	c #BCCCD3",
"$+	c #C2CBD3",
"%+	c #BDCED4",
"&+	c #C4CCD5",
"*+	c #C7CDCF",
"=+	c #C6CED7",
"-+	c #C0D1D7",
";+	c #CACFD2",
">+	c #C8D0D8",
",+	c #C2D2D8",
"'+	c #C3D3D9",
")+	c #CDD2D4",
"!+	c #C4D4DB",
"~+	c #CAD3DB",
"{+	c #C5D5DC",
"]+	c #C6D6DD",
"^+	c #CFD4D7",
"/+	c #CCD5DD",
"(+	c #C7D7DE",
"_+	c #CED6DF",
":+	c #D1D6D8",
"<+	c #C8D8DF",
"[+	c #C9DAE0",
"}+	c #D2D8DA",
"|+	c #D0D8E1",
"1+	c #CADBE1",
"2+	c #D4D9DB",
"3+	c #CBDCE2",
"4+	c #D5DADC",
"5+	c #CCDDE3",
"6+	c #D6DBDD",
"7+	c #D4DCE5",
"8+	c #CEDEE5",
"9+	c #D7DCDF",
"0+	c #D8DDE0",
"a+	c #CFE0E6",
"b+	c #D9DEE1",
"c+	c #D7DFE8",
"d+	c #D1E1E8",
"e+	c #DBE0E2",
"f+	c #D5E2E3",
"g+	c #DCE2E4",
"h+	c #DAE3EB",
"i+	c #DEE3E6",
"j+	c #E0E5E8",
"k+	c #E1E6E9",
"l+	c #DFE7F0",
"m+	c #E2E7EA",
"n+	c #E3E8EB",
"o+	c #E4E9EC",
"p+	c #E5EAED",
"q+	c #E6ECEE",
"r+	c #E7EDEF",
"s+	c #E9EEF0",
"t+	c #EAEFF2",
"u+	c #EBF0F3",
"v+	c #ECF1F4",
"w+	c #EDF2F5",
"x+	c #EEF3F6",
"y+	c #F2F4F0",
"z+	c #EFF5F7",
"A+	c #F0F6F8",
"B+	c #F2F7F9",
"C+	c #F6F9F5",
"D+	c #F4F9FC",
"E+	c #F6FBFE",
"F+	c #FBFDFA",
"G+	c #FEFFFC",
"                                                      <+T.v.b.d.e.e.v.T.<+r+                                                    ",
"                                              T.).t 0 0 0 0 0 0 0 0 0 0 0 0 y :.W.p+                                            ",
"                                        M.X g 0 0 g O >.o.R.,+%+R.D.o.4.).K 0 0 0 0 R X.                                        ",
"                                    x.t 0 0 N r.<+B+E+E+E+E+E+E+E+E+E+E+E+E+s+Z.&.m 0 0 t n.p+                                  ",
"                                o.o 0 i /.c+D+D+D+D+D+D+D+D+D+D+D+D+D+D+D+D+D+D+D+B+[+4.i 0 q M.                                ",
"                            ]+C 0 i k.s+A+A+A+A+A+A+A+A+A+A+A+A+A+A+A+A+A+A+A+A+A+A+A+A+n+4.h 0 N <+                            ",
"                          j.0 0 &.i+w+w+w+w+w+w+w+w+w+w+w+w+w+w+w+w+w+w+w+w+w+w+w+w+w+w+w+w+j+@.0 0 d.                          ",
"                      i+N 0 m @+t+t+t+t+t+t+t+t+t+t+t+t+t+t+t+t+t+t+t+t+t+t+t+t+t+t+t+t+t+t+t+t+M.i 0 @.                        ",
"                    c+w 0 F 5+q+q+q+q+q+q+q+q+q+q+q+q+q+q+q+q+q+q+q+q+q+q+q+q+q+q+q+q+q+q+q+q+q+q+5+F 0 H i+                    ",
"                  5+t 0 W i+n+n+n+n+n+n+n+n+n+n+n+n+n+n+n+n+n+n+n+n+n+n+n+n+n+n+n+n+n+n+n+n+n+n+n+n+c+H 0 t 5+                  ",
"                <+o 0 N h+j+j+j+j+j+j+j+j+j+j+j+j+j+j+j+j+j+j+j+j+j+j+j+j+j+j+j+j+j+j+j+j+j+j+j+j+j+j+d+K 0 t i+                ",
"              k+t 0 C 5+h+h+h+h+h+h+h+h+h+h+h+h+h+h+h+h+h+h+h+h+h+h+h+h+h+h+h+h+h+h+h+h+h+h+h+h+h+h+h+h+7+w 0 J                 ",
"              R 0 i '+d+d+d+d+d+d+d+d+d+d+d+d+d+d+d+d+d+d+d+d+d+d+d+d+d+d+d+d+d+d+d+d+d+d+d+d+d+d+d+d+d+d+@+g 0 `               ",
"            d.0 0 d.8+8+8+8+8+8+8+8+8+8+8+8+8+8+8+8+5+5+8+8+8+8+8+8+8+8+8+8+8+8+8+8+8+8+8+8+8+8+8+8+8+8+8+5+4.0 0 e.            ",
"          -+0 0 J [+[+[+[+[+[+[+[+[+[+[+[+[+[+[+[+(+(+7+h+<+<+<+<+1+<+<+<+<+<+<+<+<+<+<+<+[+[+<+<+1+<+<+_+]+m+w 0 0 1+          ",
"          w 0 0 M.]+]+]+]+]+]+]+]+]+]+]+]+]+]+]+{+'+%+4+j+/+(+{+!+e+(+'+(+|+|+_+_+_+|+3+|+(+!+,+/+b+|+[+-+#+t+n.0 0 N           ",
"        x.0 0 F !+!+!+!+!+!+!+!+!+!+!+!+!+!+!+!+,+#+Z.w+D+B+B+B+A+C+w+x+u+u+x+w+x+x+v+z+v+v+w+u+z+z+B+C+A+z+F+v+J 0 0 M.        ",
"      n+m 0 0 i.-+-+-+-+-+-+-+-+-+-+-+-+-+-+-+-+%+V.q.;+k+4+}+0+9+k+++)+Z.++;+++=+=+Y.)+$+Y.++*+}+9+6+b+}+:+A+Z.[.0 0 m n+      ",
"      4.0 0 g @+%+%+%+%+%+%+%+%+%+%+%+%+%+%+%+%+@+O.h.`.i+:+:+9+4+q+++>+U.&+;+++=+&+Y.)+$+U.U..+:+g+}+6+:+:+x+V.T.0 0 0 w.      ",
"      i 0 0 F  + + + + + + + + + + + + + + + + +W.L.h.U.m+2+}+0+4+A+ +&+++&+%+++>+-+Z.~+%+W.Y.Y.}+q+2+0+2+9+w+V.Z.v 0 0 y       ",
"    R.0 0 0 &.T.T.T.T.T.T.T.T.T.T.T.T.T.T.T.T.T.R.M.h.++i+:+}+6+2+B+Z.&+ +&+$+Y.-+&+V.>+@+V.N.U.b+p+}+0+2+4+w+R.T.S 0 0 0 -+    ",
"    S 0 0 0 :.R.R.R.R.R.R.R.R.R.R.R.R.R.R.R.R.R.M.x.9.)+m+:+6+w+w+F+v+u+t+s+s+r+t+s+q+t+r+p+p+o+B+B+g+e+4+0+x+%+R.).0 0 0 -.    ",
"  a+0 0 0 0 4.M.M.M.M.M.M.M.M.M.M.M.M.M.M.M.M.M.D.v.2.N.2+z.G.m.p.w+N.C.y.m.L.O.O.B.m.q.u.z.u.3.^+e+N.J.C.H.q+D.M.1.0 0 0 g n+  ",
"  M.0 0 0 0 8.D.D.D.D.D.D.D.D.D.D.D.D.D.D.D.D.D.x.v.}.H.2+S.Q.J.G.v+a.}.2.}.<.<.}.7.7.7.7.2.^.%.;+e+S.S.Q.O.p+x.D.:.0 0 0 0 M.  ",
"  >.0 0 0 0 1.x.x.x.x.x.x.x.x.x.x.x.x.x.x.x.x.x.v.j._.W.6+S.S.L.H.v+j.k.k.k.j.k.k.k.n.n.k.j.9.;.++b+S.S.O.O.q+x.x./.0 0 0 0 1.  ",
"  w 0 0 0 0 &.r.r.r.r.r.r.r.r.r.r.r.r.r.r.r.r.r.o.b.~.Q.}+L.J.B.B.v+v.o.o.o.o.o.o.o.o.o.o.l.9.;.$+0+J.J.F.F.p+v.r.).0 0 0 0 N   ",
"k+0 0 0 0 0 X i.i.i.i.i.i.i.i.i.i.i.i.i.i.i.i.i.g.|.;.W.6+Q.Q.J.H.w+x.g.i.i.i.i.i.i.i.i.i.g.}.%.>+b+Q.Q.L.O.r+j.i.+.0 0 0 0 i   ",
"#+0 0 0 0 0 N b.b.b.b.b.b.b.b.b.b.b.b.b.b.b.b.b.b.|.%.Q.:+H.O.H.F.x+x.b.b.b.b.b.b.b.b.b.b.b.(. .:+b+O.O.H.z.q+b.b.J 0 0 0 0 0 1+",
"R.0 0 0 0 0 y 4.4.4.4.4.4.4.4.4.4.4.4.4.4.4.4.4.1.{. .Q.2+J.F.z.y.v+v.1.4.4.4.4.4.4.4.4.4.1.,.Y >+9+F.F.C.J.q+|.4.t 0 0 0 0 0 M.",
"D.0 0 0 0 9 0 >.1+k+k+k+k+k+k+k+k+k+m+m+m+t.:.:./.>.Y S.!+v.v.a._.p+|./.:.:.:.:.:.:.:.:.:./.-.U H.>+a.k.m.m.o+:.{.0 0 0 0 0 0 x.",
"v.0 0 0 9 4 2 J p+G+G+G+G+G+G+G+G+G+G+G+G+x.{.{.).&.U L.#+2.2.7.a.r+/.{.{.{.{.{.{.{.{.{.{.).&.Q L.|+j.9.^.].n+{.R 0 0 0 0 0 0 v.",
"d.0 0 0 2 1 ^ b o+G+,.*.*.*.$.*.*.,.(.c+G+v.>.>.-.@.P V._+L.L.C.z.s+{.>.>.>.>.>.>.>.>.>.>.-.@.P O.4+H.J.F.F.q+>.m 0 0 0 0 0 0 v.",
"i.0 0 0 1 { > ; j+G+M I I I I I I M S 3+G+o.&.&.&.Z M F. +}.2._.].q+>.&.&.&.&.&.&.&.&.&.&.&.Z M L.,+|.7._.^.k+W 0 0 0 0 0 0 0 v.",
"x.0 0 0 ^ > * * e+G+I A A A A A A A M [+G+g.@.@.+.W M m.,+n.j.a.a.s+&.@.@.@.@.@.@.@.@.@.@.+.W G V.(+n.j.a.f.m+o 0 0 0 0 0 0 0 t.",
"R.0 0 0 ] = % * b+G+M E E D A x u x D (+G+b.X X W P E 2.-+v.v.k.h.r+@.X X X X X X X X X X W P A O._+v.v.k.k.e+9 0 0 0 0 0 0 0 t.",
"%+0 0 0 ] = * ; e+G+M M M M G A u u A #.1.Z R R R N A <.S.;.].%.%.q+/./.&.@.b.a.6.>.@.@.#.&.Z G q.#+!.~.'.$.(+9 0 0 0 0 0 0 0 R.",
"<+0 0 0 ] ; = ! e+G+n N N M H A u u A I N O O R O M A V.0+-+/+t+t+F+p+r+o+n+o+o+q+p+m+o+n+o+o+n+z+B+9+|+'+#+n+K 0 0 0 0 0 0 0 _+",
"k+0 0 0 ] ; = ~ e+G+g i H J G A n.r+r+s+s+s+t+t+r+j+U u.&+C.J.V.O.p+'.^.'._.^.'.9.}.$.a.,...=.^.=+:+O.W.y.y.i+6 0 0 0 0 0 0 g   ",
"  m 0 0 ] ; = ~ e+G+R R W &.X w D.G+G+G+G+G+G+G+F+y+P h.#+q.q.H.y.@+%.^.%._.^.'.2._.$.a.;.Y %.].u.z.u.y.9.a.i+6 0 0 0 0 0 0 J   ",
"  >.0 0 ] ; * ' e+G+G+F+C+y+&+l y.G+G+B+z+z+z+z+x+p+M q.>+J.H.@+W._+,.<..._.2.*.2.<.$.f.'...$.].O.V.H.Q.y.u.o+9 0 0 0 0 0 0 /.  ",
"  T.0 0 ] = * ; a.V.V.Q.F.u. .( m.G+G+ .3 5 b n s s b ~.>+B.u.S.L.Z...2.X =.7.*.(.^.+.a.*.Z $.~.a.y.q.F.m.a.j+6 0 0 0 0 0 0 D.  ",
"    g 0 ^ ; % * ; ! ^ ^ ~ - $ + 7.G+G+U ] [ 5 f o l r ~+o+b+9+i+g+n+@+]+#+@+~+-+'+'+@+~+ + +@+V.:+:+:+9+}+_+z+x.m 0 0 0 0 0 j+  ",
"    ` 0 _ > * * * ; ! ) > * @ . }.G+G+U ] [ 3 b j b 5 2.S.V Y M M q.Y G W Y Y ......'.<.$.S E x %.=.Y $.M D e+P g 0 0 0 0 `     ",
"    M.0 1 ] ' > > ' { ' , * @ + 2.G+G+P ( 3 5 e g a [ M S | [ [ [ A n n 3 3 3 3 3 | [ [ _ ] { ! ] | ' ' ; = x.2 9 0 0 0 0 T.    ",
"    l+i 0 0 0 0 0 0 0 2 ^ * # @ 9.G+G+X 1 1 4 0 g e 5 3 7 7 7 7 7 i+C+r+c c c 9 6 4 2 2 2 4 2 1 1 1 1 1 } ^ 1 6 0 0 0 0 m       ",
"      n.0 0 0 0 0 0 0 2 ^ * # # a.G+G+` 6 9 9 9 0 9 6 7 9 6 7 2 2 n+G+w+0 0 0 0 9 9 9 0 0 0 0 9 9 9 9 9 6 4 6 0 0 0 0 0 e.      ",
"        t 0 0 0 0 0 0 2 ^ * # $ a.G+G++.0 0 0 0 0 0 0 9 6 1 : _ : o+G+x+0 0 0 0 0 0 0 0 0 0 0 0 0 0 0 0 0 0 0 0 0 0 0 p p+      ",
"        M.0 0 0 0 0 0 2 ^ * # $ a.G+G++.0 0 0 0 0 0 0 9 4 : ! ; ' o+G+x+0 0 0 0 0 0 0 0 0 0 0 0 0 0 0 0 0 0 0 0 0 0 0 D.        ",
"          F 0 0 0 0 0 2 ^ * # $ a.G+G++.0 0 0 0 0 0 0 9 2 ] = % * o+G+x+0 0 0 0 0 0 0 0 0 0 0 0 0 0 0 0 0 0 0 0 0 0 C           ",
"          %+0 0 0 0 0 2 ^ * # $ a.G+G++.0 0 0 0 0 0 0 6 1 ~ * # % o+G+x+0 0 0 0 0 0 0 0 0 0 0 0 0 0 0 0 0 0 0 0 0 0 %+          ",
"            1.0 0 0 0 2 ^ * # $ a.G+G+4.K K K K K K K J F A r r r r+G+x+0 0 0 0 0 0 0 0 0 0 0 0 0 0 0 0 0 0 0 0 0 d.            ",
"              ` 0 0 0 2 ^ * # # 9.G+G+G+G+G+G+G+G+G+G+G+G+G+G+G+G+G+G+x+0 0 0 0 0 0 0 0 0 0 0 0 0 0 0 0 0 0 0 0 W               ",
"                F 0 0 2 ^ * # @ 9.G+G+G+G+G+G+G+G+G+G+G+G+G+G+G+G+G+G+x+0 0 0 0 0 0 0 0 0 0 0 0 0 0 0 0 0 0 0 v n+              ",
"                i+q 0 2 _ * @ . E C.F.H.H.H.H.H.H.H.H.F.C.B.z.y.B.H.M.x.0 0 0 0 0 0 0 0 0 0 0 0 0 0 0 0 0 0 o [+                ",
"                  (+i 4 ^ = # . . @ # $ $ $ $ $ $ $ $ $ # + . + % ~ 1 9 0 0 0 0 0 0 0 0 0 0 0 0 0 0 0 0 0 t 5+                  ",
"                    a+w _ ' % # @ @ # # # # # # # # # # # @ @ $ = ^ 2 9 0 0 0 0 0 0 0 0 0 0 0 0 0 0 0 0 y f+                    ",
"                      i+Q ^ ' = * * * * * * * * * * * * * * * ; ~ } 4 9 0 0 0 0 0 0 0 0 0 0 0 0 0 0 0 H i+                      ",
"                          2.: _ ^ ] ] ] ] ] ] ] ] ] ] ] ] ] ^ _ 1 2 9 0 0 0 0 0 0 0 0 0 0 0 0 0 0 0 g.                          ",
"                            %+w 0 0 0 0 0 0 0 0 0 0 0 0 0 0 0 0 0 0 0 0 0 0 0 0 0 0 0 0 0 0 0 0 C (+                            ",
"                                D.q 0 0 0 0 0 0 0 0 0 0 0 0 0 0 0 0 0 0 0 0 0 0 0 0 0 0 0 0 i b.                                ",
"                                    w.m 0 0 0 0 0 0 0 0 0 0 0 0 0 0 0 0 0 0 0 0 0 0 0 0 q r.n+                                  ",
"                                      r+E.R g 0 0 0 0 0 0 0 0 0 0 0 0 0 0 0 0 0 0 0 H R.                                        ",
"                                            r+W.).m 0 0 0 0 0 0 0 0 0 0 0 0 t {.R.i+                                            ",
"                                                    c+{+#+R.x.i.g.v.M.T.%+7+                                                    "};
