/* XPM */
static char * logo_64_xpm[] = {
"64 64 332 2",
"  	c None",
". 	c #726AA5",
"+ 	c #7169A4",
"@ 	c #726BA5",
"# 	c #7269A5",
"$ 	c #736BA6",
"% 	c #7168A4",
"& 	c #736CA6",
"* 	c #7067A3",
"= 	c #7066A3",
"- 	c #746DA7",
"; 	c #7067A4",
"> 	c #746DA6",
", 	c #A3BACF",
"' 	c #B3D4DC",
") 	c #7F7FB0",
"! 	c #6F66A3",
"~ 	c #6E64A2",
"{ 	c #8A91B9",
"] 	c #B8DCE0",
"^ 	c #96A6C4",
"/ 	c #6F65A2",
"( 	c #A6BED1",
"_ 	c #B1D1DA",
": 	c #7A78AC",
"< 	c #736BA5",
"[ 	c #6E63A1",
"} 	c #8C95BB",
"| 	c #B8DDE1",
"1 	c #929EC0",
"2 	c #9DB1CA",
"3 	c #B6D9DE",
"4 	c #8387B4",
"5 	c #7B79AD",
"6 	c #B9DEE1",
"7 	c #C1EBE8",
"8 	c #93A0C1",
"9 	c #6D61A0",
"0 	c #6D62A1",
"a 	c #A2B9CE",
"b 	c #C3EDE9",
"c 	c #AFCED9",
"d 	c #7D7DAF",
"e 	c #BAE1E2",
"f 	c #C0E9E7",
"g 	c #A2B8CE",
"h 	c #7772A9",
"i 	c #B5D7DD",
"j 	c #ABC8D6",
"k 	c #7672A9",
"l 	c #B5D8DE",
"m 	c #C2ECE8",
"n 	c #9AABC6",
"o 	c #B6D9DF",
"p 	c #BEE6E5",
"q 	c #A0B5CC",
"r 	c #C0E8E7",
"s 	c #ADC9D6",
"t 	c #7D7CAE",
"u 	c #BBE2E3",
"v 	c #8386B4",
"w 	c #6D61A1",
"x 	c #9AACC7",
"y 	c #BDE5E4",
"z 	c #BBE0E3",
"A 	c #A9C4D4",
"B 	c #B2D3DB",
"C 	c #BFE7E6",
"D 	c #98A8C5",
"E 	c #B7DADF",
"F 	c #C0EAE7",
"G 	c #ADCAD7",
"H 	c #B8DDE0",
"I 	c #BCE3E4",
"J 	c #AAC5D4",
"K 	c #BFE9E6",
"L 	c #B7DCE0",
"M 	c #BDE5E5",
"N 	c #8B92BA",
"O 	c #6E63A2",
"P 	c #B7DBDF",
"Q 	c #BCE4E4",
"R 	c #AFCFD9",
"S 	c #8487B4",
"T 	c #BCE2E3",
"U 	c #B9DDE1",
"V 	c #BADFE2",
"W 	c #B6DADF",
"X 	c #BFE8E6",
"Y 	c #ADCBD7",
"Z 	c #A7C1D2",
"` 	c #C0E9E6",
" .	c #A9C4D3",
"..	c #BEE7E5",
"+.	c #888DB8",
"@.	c #BDE4E4",
"#.	c #9EB1CA",
"$.	c #A9C3D3",
"%.	c #929FC0",
"&.	c #BEE7E6",
"*.	c #888FB8",
"=.	c #BAE0E2",
"-.	c #9EB2CA",
";.	c #ABC7D5",
">.	c #ACC8D6",
",.	c #A3BBCF",
"'.	c #C1EAE7",
").	c #8D96BC",
"!.	c #685A9D",
"~.	c #BEE5E5",
"{.	c #B9DFE1",
"].	c #BCE3E3",
"^.	c #868BB6",
"/.	c #6A5D9E",
"(.	c #A4BCCF",
"_.	c #7A77AC",
":.	c #939FC1",
"<.	c #A1B8CD",
"[.	c #ACC9D6",
"}.	c #8C94BB",
"|.	c #6C60A0",
"1.	c #7976AC",
"2.	c #BDE3E4",
"3.	c #A4BBCF",
"4.	c #6F65A3",
"5.	c #98A9C6",
"6.	c #746EA7",
"7.	c #A6BFD1",
"8.	c #6C61A0",
"9.	c #7167A4",
"0.	c #A5BED0",
"a.	c #8B94BB",
"b.	c #6F64A2",
"c.	c #C2EDE9",
"d.	c #7671A9",
"e.	c #B2D4DC",
"f.	c #96A4C3",
"g.	c #67599C",
"h.	c #9EB2CB",
"i.	c #8284B3",
"j.	c #A6C0D2",
"k.	c #8F99BD",
"l.	c #B7DBE0",
"m.	c #BDE4E5",
"n.	c #8B93BA",
"o.	c #93A1C1",
"p.	c #888EB8",
"q.	c #A3B9CE",
"r.	c #A8C3D3",
"s.	c #95A3C3",
"t.	c #97A7C5",
"u.	c #7874AA",
"v.	c #BBE1E3",
"w.	c #7169A5",
"x.	c #C3EEE9",
"y.	c #7671A8",
"z.	c #C1ECE8",
"A.	c #C4F1EB",
"B.	c #B2D3DC",
"C.	c #7873AA",
"D.	c #AECDD8",
"E.	c #95A4C3",
"F.	c #726BA6",
"G.	c #B2D2DB",
"H.	c #7C7AAD",
"I.	c #8D97BC",
"J.	c #97A6C4",
"K.	c #ABC6D5",
"L.	c #7B7AAD",
"M.	c #756FA8",
"N.	c #716BA5",
"O.	c #7369A4",
"P.	c #7467A4",
"Q.	c #7466A3",
"R.	c #7465A3",
"S.	c #7565A3",
"T.	c #7466A4",
"U.	c #7367A4",
"V.	c #7368A4",
"W.	c #6F70A7",
"X.	c #6B78AA",
"Y.	c #687EAC",
"Z.	c #6583AE",
"`.	c #6485AF",
" +	c #6682AE",
".+	c #697CAB",
"++	c #6D75A9",
"@+	c #716DA6",
"#+	c #7564A3",
"$+	c #7369A5",
"%+	c #6584AE",
"&+	c #4EAFBD",
"*+	c #4AB6C0",
"=+	c #47BCC2",
"-+	c #45BFC3",
";+	c #45C1C4",
">+	c #45C0C4",
",+	c #46BEC3",
"'+	c #48BBC2",
")+	c #4CB3BF",
"!+	c #52A7BB",
"~+	c #5C95B4",
"{+	c #6780AD",
"]+	c #706DA6",
"^+	c #7966A4",
"/+	c #7668A4",
"(+	c #716AA5",
"_+	c #50ADBD",
":+	c #43C4C5",
"<+	c #47BBC2",
"[+	c #47BDC2",
"}+	c #44C2C4",
"|+	c #45C0C3",
"1+	c #4BB4BF",
"2+	c #589CB7",
"3+	c #697CAC",
"4+	c #6D6DA6",
"5+	c #4A81AC",
"6+	c #5B77A9",
"7+	c #7568A4",
"8+	c #5B97B5",
"9+	c #44C1C4",
"0+	c #46BFC3",
"a+	c #51A9BB",
"b+	c #7469A5",
"c+	c #4D80AB",
"d+	c #1F99B3",
"e+	c #0EA2B5",
"f+	c #199CB4",
"g+	c #6A6FA6",
"h+	c #697BAB",
"i+	c #52A8BB",
"j+	c #6A7AAB",
"k+	c #7866A4",
"l+	c #6572A7",
"m+	c #2B92B1",
"n+	c #10A1B5",
"o+	c #159EB4",
"p+	c #1A9BB4",
"q+	c #11A0B5",
"r+	c #4D7FAB",
"s+	c #706BA5",
"t+	c #4EAEBD",
"u+	c #507DAB",
"v+	c #199DB4",
"w+	c #12A0B5",
"x+	c #189DB4",
"y+	c #189CB4",
"z+	c #2F90B0",
"A+	c #716BA6",
"B+	c #5C94B4",
"C+	c #44C3C4",
"D+	c #50ABBC",
"E+	c #6E73A8",
"F+	c #159EB5",
"G+	c #179DB4",
"H+	c #169DB4",
"I+	c #6771A7",
"J+	c #7568A5",
"K+	c #6A7AAA",
"L+	c #47BDC3",
"M+	c #48BAC2",
"N+	c #4AB7C0",
"O+	c #6A79AA",
"P+	c #4B80AC",
"Q+	c #50ACBD",
"R+	c #49B9C1",
"S+	c #42C5C5",
"T+	c #579FB8",
"U+	c #7563A3",
"V+	c #13A0B5",
"W+	c #2C91B1",
"X+	c #5E91B3",
"Y+	c #49B8C1",
"Z+	c #6472A7",
"`+	c #6B77AA",
" @	c #4CB4BF",
".@	c #6C76A9",
"+@	c #4882AC",
"@@	c #51AABC",
"#@	c #4FADBD",
"$@	c #139FB5",
"%@	c #2A93B1",
"&@	c #5F8FB2",
"*@	c #48BBC1",
"=@	c #53A6BA",
"-@	c #169EB4",
";@	c #6273A8",
">@	c #6C75A9",
",@	c #589DB8",
"'@	c #9BADC8",
")@	c #4584AD",
"!@	c #B4D5DC",
"~@	c #7670A8",
"{@	c #2794B2",
"]@	c #618CB1",
"^@	c #98A8C6",
"/@	c #6075A8",
"(@	c #6D73A8",
"_@	c #49BAC1",
":@	c #48BCC2",
"<@	c #7976AB",
"[@	c #4286AD",
"}@	c #54A5BA",
"|@	c #41C7C6",
"1@	c #7F81B1",
"2@	c #B4D7DD",
"3@	c #96A5C4",
"4@	c #149FB4",
"5@	c #2595B2",
"6@	c #5A98B6",
"7@	c #599BB7",
"8@	c #54A4BA",
"9@	c #4CB2BF",
"0@	c #6D74A9",
"a@	c #716CA5",
"b@	c #B9DDE0",
"c@	c #B1D0DA",
"d@	c #716CA6",
"e@	c #53A5BA",
"f@	c #706FA7",
"g@	c #8E97BC",
"h@	c #878DB7",
"i@	c #338EB0",
"j@	c #388BAF",
"k@	c #9DB0C9",
"l@	c #B0CFD9",
"m@	c #1B9BB4",
"n@	c #696FA7",
"o@	c #4385AD",
"p@	c #B1D1DB",
"q@	c #99A9C6",
"                                                                                                                                ",
"    . . . . . . . . . . . . . . . . . . . . . . . . . . . . . . . . . . . . . . . . . . . . . . . . . . . . . . . . . . . .     ",
"  . . . . . . . . . . . . . . . . . . . . . . . . . . . . . . . . . . . . . . . . . . . . . . . . . . . . . . . . . . . . . .   ",
"  . . . . . . . . . . . . . . . . . . . . . . . . . . . . . . . . . . . . . . . . . . . . . . . . . . . . . . . . . . . . . .   ",
"  . . . . . . . . . . . . . . . . . . . . . . . . . . . . . . . . . . . . . . . . . . . . . . . . . . . . . . . . . . . . . .   ",
"  . . . . . . . . . . . . . . . . . . . . . . . . . . . . . . . . . . . . . . . . . . . . . . . . . . . . . . . . . . . . . .   ",
"  . . . . . . . . + @ . . . . . @ + @ . . . . . # @ . . . . . . . . @ + @ . . . . . + $ . . . . . . . . . . . . . . . . . . .   ",
"  . . . . . . % + & * @ . . . . = - ; . . . % # $ ; @ . . . . . . @ * - ; . . . + % > = @ . . . . . . . . . . . . . . . . . .   ",
"  . . . . . . . , ' ) ! $ . $ ~ { ] ^ / $ # & ( _ : * < . . . . & [ } | 1 ~ $ @ ; 2 3 4 / $ . . . . . . . . . . . . . . . . .   ",
"  . . . . < = 5 6 7 8 9 & . & 0 a b c . @ = d e f g [ & . . . @ % h i f j = $ % k l m n 9 & . . . . . . . . . . . . . . . . .   ",
"  . . . . @ = 5 o p 1 0 & . & [ q r s . @ = t ] ] u v ~ $ . . & w x y z A * $ % k B C D 0 & . . . . . . . . . . . . . . . . .   ",
"  . . . . @ = 5 E C 1 0 & . & [ q F G . @ = t 6 H I A = @ . $ ! t 6 H I J * $ % k ' K D 0 & . . . . . . . . . . . . . . . . .   ",
"  . . . . @ = 5 E C 1 0 & . & [ q F G . @ = t 6 6 L M N 0 & & O a y P Q J * $ % k ' K D 0 & . . . . . . . . . . . . . . . . .   ",
"  . . . . @ = 5 E C 1 0 & . & [ q F G . @ = t 6 6 6 u R & < ~ S T 6 U I J * $ % k ' K D 0 & . . . . . . . . . . . . . . . . .   ",
"  . . . . @ = 5 E C 1 0 & . & [ q F G . @ = t 6 V g W C 8 0 + A X Y Z `  .* $ % k ' K D 0 & . . . . . . . . . . . . . . . . .   ",
"  . . . . @ = 5 E C 1 0 & . & [ q F G . @ = t ] ..+.q X l < { @.p { #.m $.* $ % k ' K D 0 & . . . . . . . . . . . . . . . . .   ",
"  . . . . @ = 5 E C %.0 & . & [ q F G . @ = t ] &.*.: =.y -.;.X >.0 ,.'.$.* $ % k ' K D 0 & . . . . . . . . . . . . . . . . .   ",
"  . . . . @ = 5 E &.1 0 & . & [ q F Y . @ = t ] p ).!.-.~.=.{.].^./.(.'.$.* $ % k ' K D 0 & . . . . . . . . . . . . . . . . .   ",
"  . . . . @ * _.3 X :.0 - < - O <.F [.. < = t ] p }.|.1.o ] 2.3./ 4., '.$.* $ % k ' X 5.~ 6.& & & $ . . . . . . . . . . . . .   ",
"  . . . . . + 6._ p 7.8./ 9.0 - _ ..0.~ & = t ] p a.b.[ 8 c.=.t * / , '.$.* $ % d.e.f f.g.~ 0 0 w 4.. . . . . . . . . . . . .   ",
"  . . . . . & 0 h.X 6 2 ) 5 i.j.V X k.0 > = t l.m.n.[ $ . o.p.4.& ~ q.f r.* $ % k e.].r.s.D t.t.5.i.* @ . . . . . . . . . . .   ",
"  . . . . . @ ; u._ X C v.] Q p f 7.w.. $ ! d =.f ).0 & . 0 b.< $ O 0.x.;.= $ % y.P y p z.7 7 F A.B.+ . . . . . . . . . . . .   ",
"  . . . . . . $ = C.2 _ L V W D.E.F.% @ . # & Z G.H.* @ . & $ . $ ~ I.6 8 ~ $ @ * J.D.;.;.;.;.K.Y o.= @ . . . . . . . . . . .   ",
"  . . . . . . . $ ; 0 6.L.d : @ 0 # @ . . . % . - * @ . . . . . . . * M.; . . . . / + + + + + + % b.. . . . . . . . . . . . .   ",
"  . . . . . . . . @ & + = ! * . & . . . . . @ . w.@ . . . . . . . . @ + @ . . . . $ . . . . . . . $ . . . . . . . . . . . . .   ",
"  . . . . . . . . . . . @ $ @ . . . . . . . . . . . . . . . . . . . . . . . . . . . . . . . . . . . . . . . . . . . . . . . .   ",
"  . . . . . . . . . . . . . . . . . . . . . . . . . . . . . . . . . . . . . . . . . . . . . . . . . . . . . . . . . . . . . .   ",
"  . . . . . . . . . . . . . . . . . . . . . . . . . . . . . . . . . . . . . . . . . . . . . . . . . . . . . . . . . . . . . .   ",
"  . . . . . . . . . . . . . . . . . . . . . . . . . . . . . . . . . . . . . . . . . . . . . . . . . . . . . . . . . . . . . .   ",
"  . . . . . . . . . . . . . . . . . . . . . . . . . . . . . . . . . . . . . . . . . . . . . . . . . . . . . . . . . . . . . .   ",
"  . . . . . . . . . . . . . . . . . . . . . . . . . . . . . . . . . . . . . . . . . . . . . . . . . . . . . . . . . . . . . .   ",
"  . . . . . . . . . . . . . . . . . . . . . . . . . . . . . . . . . . . . . . . . . . . . . . . . . . . . . . . . . . . . . .   ",
"  . . . . . . . . . . . . . . . . . . . . . . . . . . . . . . . . . . . . . . . . . . . . . . . . . . . . . . . . . . . . . .   ",
"  . . . . . . . . . . . . . . . . . . . . . . . . . . . . . . . . . . . . . . . . . . . . . . . . . . . . . . . . . . . . . .   ",
"  . . . . . . . . . . . . . . . . . . . . . . . . . . . . . . . . . . . . . . . . . . . . . . . . . . . . . . . . . . . . . .   ",
"  . . . . . . . . . . . . . . . . . . . . . . . . . . . . . . . . . . . . . . . . . . . . . . . . . . . . . . . . . . . . . .   ",
"  . . . . . . . . . . . . . . @ @ N.N.N.N.@ @ . . . . . . . . . . . . . . . . . . . . . . . . . . . . . . . . . . . . . . . .   ",
"  . . . . . . . . . . . N.. O.P.Q.R.S.S.R.T.U.# @ N.@ . . . . . . . . . . . . . . . . . . . . . . . . . . . . . . . . . . . .   ",
"  . . . . . . . . . . . T.V.W.X.Y.Z.`.`. +.+++@+P.#+R.$+N.@ . . . . . . . . . . . . . . . . . . . . . . . . . . . . . . . . .   ",
"  . . . . . N.N.. . @ P.%+&+*+=+-+;+;+;+>+,+'+)+!+~+{+]+#+T.. N.. . . . . . . . . . . . . . . . . . . . . . . . . . . . . . .   ",
"  . . . N.$+^+/+(+. @ P._+:+=+=+<+<+'+'+<+=+[+,+>+}+|+1+2+3+P.S.@ @ . . . . . . . . . . . . . . . . . . . . . . . . . . . . .   ",
"  . N.. ^+4+5+6+7+(+N.S.8+9+'+=+=+=+=+=+=+=+=+<+'+'+<+,+}+0+a+ +P.T.N.. . . . . . . . . . . . . . . . . . . . . . . . . . . .   ",
"  N.7+b+c+d+e+f+g+b+N.T.h+,+=+=+=+=+=+=+=+=+=+=+=+=+=+=+'+<+|+;+i+j+#+. @ . . . . . . . . . . . . . . . . . . . . . . . . . .   ",
"  k+l+m+n+o+p+q+r+k+s+. # t+-+<+=+=+=+=+=+=+=+=+=+=+=+=+=+=+'+'+>+,+~+$+U.N.. . . . . . . . . . . . . . . . . . . . . . . . .   ",
"  u+v+w+f+x+y+w+z+/+(+A+#+B+}+'+=+=+=+=+=+=+=+=+=+=+=+=+=+=+=+=+'+=+C+D+E+T.@ . . . . . . . . . . . . . . . . . . . . . . . .   ",
"  F+o+y+G+G+G+H+f+I+J+N.P.K+L+=+=+=+=+=+=+=+=+=+=+=+=+=+=+=+=+=+=+=+M+9+N+O+U.@ . . . . . . . . . . . . . . . . . . . . . . .   ",
"  f+G+G+G+G+G+y+n+P+^+s+. V.Q+|+<+=+=+=+=+=+=+=+=+=+=+=+=+=+=+=+=+=+=+R+S+T+U+A+. . . . . . . . . . . . . . . . . . . . . . .   ",
"  f+G+G+G+G+G+y+V+W+J+(+N.#+X+}+'+=+=+=+=+=+=+=+=+=+=+=+=+=+=+=+=+=+'+-+Y+j+U.@ . . . . . . . . . . . . . . . . . . . . . . .   ",
"  f+G+G+G+G+G+G+G+G+Z+7+N.P.`+=+=+=+=+=+=+=+=+=+=+=+=+=+=+=+=+=+=+M+;+ @.@R.@ . & & . . . . . . . . . . . . . . . . . . . . .   ",
"  f+G+G+G+G+G+G+f+n++@^+s+. V.@@|+<+=+=+=+=+=+=+=+=+=+=+=+=+=+=+M+}+#@W.Q.N.. $ [ [ @ . . . . . . . . . . . . . . . . . . . .   ",
"  f+G+G+G+G+G+G+x+$@%@b+. A+#+&@}+*@=+=+=+=+=+=+=+=+=+=+=+=+=+'+}+=@F.U.N.< . ~ a.a.= @ . . . . . . . . . . . . . . . . . . .   ",
"  f+G+G+G+G+G+G+G+G+-@;@/+N.U.>@'+=+=+=+=+=+=+=+=+=+=+=+=+=+'+}+,@U.O.N.$ + / '@..X n.0 & . . . . . . . . . . . . . . . . . .   ",
"  f+G+G+G+G+G+G+G+f+n+)@^+s+@ P.i+|+'+=+=+=+=+=+=+=+=+=+<+=+9+B+S.. . & * w.a C P =.!@~@% @ . . . . . . . . . . . . . . . . .   ",
"  f+G+G+G+G+G+G+G+x+$@{@$+. A+#+]@}+'+=+=+=+=+=+=+=+=+<+[+|+]@#+@ . & / M.A p ] 6 ] &.^@0 & . . . . . . . . . . . . . . . . .   ",
"  f+G+G+G+G+G+G+G+G+G+o+/@/+N.V.(@_@:@'+'+<+=+=+=+=+'+,+=+Z.#+N.. & O _.c ~.] 6 6 6 V W <@; @ . . . . . . . . . . . . . . . .   ",
"  f+G+G+G+G+G+G+G+G+f+n+[@^+s+@ T.}@|@;+9+,+<+'+=+'+|+Y+h+#+N.. & 0 1@2@I ] 6 6 6 6 ] ..3@0 & . . . . . . . . . . . . . . . .   ",
"  f+G+G+G+G+G+G+G+G+x+4@5@N.. @ V.>@6@7@8@)+|+;+<+9+9@0@R.a@. & 9 ^.b@v.] 6 6 6 6 6 U v.c@- w.. . . . . . . . . . . . . . . .   ",
"  f+G+G+G+G+G+G+G+G+G+y+V+;@/+(+. V.#+#+T.d@{+e@0+@@f@Q.N.. $ 9 g@T =.] 6 6 6 6 6 6 6 H @.h@[ & . . . . . . . . . . . . . . .   ",
"  f+G+G+G+G+G+G+G+G+y+n+i@N.. . . . N.N.N.# S.P.X.@ U.N.< . [ E.M 6 | 6 6 6 6 6 6 6 6 ] p h.0 & . . . . . . . . . . . . . . .   ",
"  f+G+G+G+G+G+G+G+y+q+j@/+$+. . . . . . . . N.. P.. . < % ! k@..H U 6 6 6 6 6 6 6 6 6 U v.l@& # . . . . . . . . . . . . . . .   ",
"  x+G+G+G+G+G+G+y+w+z+/+. (+. . . . . . . . . . @ . @ % F.3.C ] 6 6 6 6 6 6 6 6 6 6 6 6 6 V ) 4.$ . . . . . . . . . . . . . .   ",
"  f+G+G+G+G+G+G+-@m@n@7+N.. . . . . . . . . . . . . . % 7.X l.6 6 6 6 6 6 6 6 6 6 6 6 6 ] p } 0 & . . . . . . . . . . . . . .   ",
"    f+x+G+G+G+y+q+o@^+s+. . . . . . . . . . . . . . w.- p@=.U 6 6 6 6 6 6 6 6 6 6 6 6 6 ] p q@0 & . . . . . . . . . . . . .     ",
"                                                                                                                                "};
