<?xml version="1.0" encoding="UTF-8" standalone="no"?>
<svg
   xmlns:dc="http://purl.org/dc/elements/1.1/"
   xmlns:cc="http://creativecommons.org/ns#"
   xmlns:rdf="http://www.w3.org/1999/02/22-rdf-syntax-ns#"
   xmlns:svg="http://www.w3.org/2000/svg"
   xmlns="http://www.w3.org/2000/svg"
   xmlns:sodipodi="http://sodipodi.sourceforge.net/DTD/sodipodi-0.dtd"
   xmlns:inkscape="http://www.inkscape.org/namespaces/inkscape"
   version="1.1"
   viewBox="-34214.4 0 0 76.8"
   x="0px"
   y="0px"
   id="svg3037"
   inkscape:version="0.91 r13725"
   width="11.288889mm"
   height="11.288889mm"
   sodipodi:docname="HelpOff.svg">
  <metadata
     id="metadata3049">
    <rdf:RDF>
      <cc:Work
         rdf:about="">
        <dc:format>image/svg+xml</dc:format>
        <dc:type
           rdf:resource="http://purl.org/dc/dcmitype/StillImage" />
        <dc:title />
      </cc:Work>
    </rdf:RDF>
  </metadata>
  <defs
     id="defs3047">
    <filter
       id="filter4415"
       inkscape:label="Drop Shadow"
       style="color-interpolation-filters:sRGB">
      <feFlood
         id="feFlood4417"
         flood-opacity="0.7"
         flood-color="rgb(0,0,0)"
         result="flood" />
      <feComposite
         id="feComposite4419"
         in2="SourceGraphic"
         in="flood"
         operator="in"
         result="composite1" />
      <feGaussianBlur
         id="feGaussianBlur4421"
         stdDeviation="2.5"
         result="blur" />
      <feOffset
         id="feOffset4423"
         dx="2"
         dy="2"
         result="offset" />
      <feComposite
         id="feComposite4425"
         in2="offset"
         in="SourceGraphic"
         operator="over"
         result="composite2" />
    </filter>
    <filter
       id="filter4427"
       inkscape:label="Drop Shadow"
       style="color-interpolation-filters:sRGB">
      <feFlood
         id="feFlood4429"
         flood-opacity="0.7"
         flood-color="rgb(0,0,0)"
         result="flood" />
      <feComposite
         id="feComposite4431"
         in2="SourceGraphic"
         in="flood"
         operator="in"
         result="composite1" />
      <feGaussianBlur
         id="feGaussianBlur4433"
         stdDeviation="2.5"
         result="blur" />
      <feOffset
         id="feOffset4435"
         dx="2"
         dy="2"
         result="offset" />
      <feComposite
         id="feComposite4437"
         in2="offset"
         in="SourceGraphic"
         operator="over"
         result="composite2" />
    </filter>
  </defs>
  <sodipodi:namedview
     pagecolor="#ffffff"
     bordercolor="#666666"
     borderopacity="1"
     objecttolerance="10"
     gridtolerance="10"
     guidetolerance="10"
     inkscape:pageopacity="0"
     inkscape:pageshadow="2"
     inkscape:window-width="1680"
     inkscape:window-height="949"
     id="namedview3045"
     showgrid="false"
     inkscape:zoom="2.1185582"
     inkscape:cx="-42.764873"
     inkscape:cy="5.0618341"
     inkscape:window-x="82"
     inkscape:window-y="1463"
     inkscape:window-maximized="1"
     inkscape:current-layer="svg3037"
     fit-margin-top="0"
     fit-margin-left="0"
     fit-margin-right="0"
     fit-margin-bottom="0"
     units="mm" />
  <path
     inkscape:connector-curvature="0"
     d="m 19.999852,40.119368 c -11.1107034,0 -20.11930342,-9.00844 -20.11930342,-20.119355 0,-11.1109604 9.00860002,-20.11938042 20.11930342,-20.11938042 11.111,0 20.1196,9.00842002 20.1196,20.11938042 0,11.110915 -9.0086,20.119355 -20.1196,20.119355 z m 15.0478,-27.467995 -4.3727,2.48978 c 0.6756,1.48216 1.0613,3.12354 1.0613,4.85886 0,1.7353 -0.3857,3.376655 -1.0613,4.857155 l 4.3727,2.48975 c 1.0898,-2.2215 1.7184,-4.709635 1.7184,-7.346905 0,-2.63732 -0.6286,-5.12541 -1.7184,-7.34864 z m -31.8137034,7.34864 c 0,2.63727 0.6285,5.125405 1.7184,7.348585 l 4.3726,-2.48978 c -0.6757,-1.48215 -1.0613,-3.123505 -1.0613,-4.858805 0,-1.73532 0.3856,-3.3767 1.0613,-4.85719 l -4.3726,-2.48973 c -1.0899,2.22151 -1.7184,4.7096 -1.7184,7.34692 z m 8.3829004,0 c 0,4.622385 3.760703,8.383045 8.383003,8.383045 4.6225,0 8.3832,-3.76066 8.3832,-8.383045 0,-4.62241 -3.7607,-8.38309 -8.3832,-8.38309 -4.6223,0 -8.383003,3.76068 -8.383003,8.38309 z m 15.755203,15.035835 -2.4898,-4.37259 c -1.4889,0.68239 -3.1385,1.07306 -4.8824,1.07306 -1.7436,0 -3.3933,-0.39076 -4.882203,-1.07306 l -2.4897,4.37259 c 2.2281,1.09654 4.724603,1.73026 7.371903,1.73026 2.6474,0 5.144,-0.63372 7.3722,-1.73026 z M 12.627949,4.9641226 l 2.4897,4.37263 c 1.488903,-0.6824 3.138603,-1.07307 4.882203,-1.07307 1.7439,0 3.3935,0.39073 4.8824,1.07307 l 2.4898,-4.37263 c -2.2282,-1.0965 -4.7248,-1.73026 -7.3722,-1.73026 -2.6473,0 -5.143803,0.63376 -7.371903,1.73026 z"
     id="path4"
     style="fill:#a2c0d6;fill-opacity:1"
     inkscape:export-filename="/Volumes/partage/private/marketing/Design/Produits/UMLDesigner/welcomepage/exports/HelpOff.png"
     inkscape:export-xdpi="90"
     inkscape:export-ydpi="90" />
</svg>
