<?xml version="1.0" encoding="UTF-8" standalone="no"?>
<svg
   xmlns:dc="http://purl.org/dc/elements/1.1/"
   xmlns:cc="http://creativecommons.org/ns#"
   xmlns:rdf="http://www.w3.org/1999/02/22-rdf-syntax-ns#"
   xmlns:svg="http://www.w3.org/2000/svg"
   xmlns="http://www.w3.org/2000/svg"
   xmlns:sodipodi="http://sodipodi.sourceforge.net/DTD/sodipodi-0.dtd"
   xmlns:inkscape="http://www.inkscape.org/namespaces/inkscape"
   version="1.1"
   viewBox="-34214.4 0 0 76.8"
   x="0px"
   y="0px"
   id="svg3037"
   inkscape:version="0.91 r13725"
   width="11.288889mm"
   height="11.288889mm"
   sodipodi:docname="CaptureOff.svg">
  <metadata
     id="metadata3049">
    <rdf:RDF>
      <cc:Work
         rdf:about="">
        <dc:format>image/svg+xml</dc:format>
        <dc:type
           rdf:resource="http://purl.org/dc/dcmitype/StillImage" />
        <dc:title />
      </cc:Work>
    </rdf:RDF>
  </metadata>
  <defs
     id="defs3047">
    <filter
       id="filter4415"
       inkscape:label="Drop Shadow"
       style="color-interpolation-filters:sRGB">
      <feFlood
         id="feFlood4417"
         flood-opacity="0.7"
         flood-color="rgb(0,0,0)"
         result="flood" />
      <feComposite
         id="feComposite4419"
         in2="SourceGraphic"
         in="flood"
         operator="in"
         result="composite1" />
      <feGaussianBlur
         id="feGaussianBlur4421"
         stdDeviation="2.5"
         result="blur" />
      <feOffset
         id="feOffset4423"
         dx="2"
         dy="2"
         result="offset" />
      <feComposite
         id="feComposite4425"
         in2="offset"
         in="SourceGraphic"
         operator="over"
         result="composite2" />
    </filter>
    <filter
       id="filter4427"
       inkscape:label="Drop Shadow"
       style="color-interpolation-filters:sRGB">
      <feFlood
         id="feFlood4429"
         flood-opacity="0.7"
         flood-color="rgb(0,0,0)"
         result="flood" />
      <feComposite
         id="feComposite4431"
         in2="SourceGraphic"
         in="flood"
         operator="in"
         result="composite1" />
      <feGaussianBlur
         id="feGaussianBlur4433"
         stdDeviation="2.5"
         result="blur" />
      <feOffset
         id="feOffset4435"
         dx="2"
         dy="2"
         result="offset" />
      <feComposite
         id="feComposite4437"
         in2="offset"
         in="SourceGraphic"
         operator="over"
         result="composite2" />
    </filter>
  </defs>
  <sodipodi:namedview
     pagecolor="#ffffff"
     bordercolor="#666666"
     borderopacity="1"
     objecttolerance="10"
     gridtolerance="10"
     guidetolerance="10"
     inkscape:pageopacity="0"
     inkscape:pageshadow="2"
     inkscape:window-width="1680"
     inkscape:window-height="949"
     id="namedview3045"
     showgrid="false"
     inkscape:zoom="2.1185582"
     inkscape:cx="-61.173619"
     inkscape:cy="5.0618343"
     inkscape:window-x="82"
     inkscape:window-y="1463"
     inkscape:window-maximized="1"
     inkscape:current-layer="svg3037"
     fit-margin-top="0"
     fit-margin-left="0"
     fit-margin-right="0"
     fit-margin-bottom="0"
     units="mm" />
  <path
     inkscape:connector-curvature="0"
     d="M 14.8,17 24.34,0.48 C 22.94,0.18 21.5,0 20,0 15.2,0 10.8,1.7 7.36,4.5 L 14.68,17.2 14.8,17 Z M 39.08,14 C 37.24,8.16 32.78,3.48 27.08,1.32 L 19.76,14 39.08,14 Z m 0.52,2 -14.98,0 0.58,1 9.52,16.5 C 38,29.94 40,25.22 40,20 40,18.62 39.86,17.3 39.6,16 Z M 13.08,20 5.28,6.5 C 2.02,10.06 0,14.78 0,20 c 0,1.38 0.14,2.7 0.4,4 l 14.98,0 -2.3,-4 z M 0.92,26 c 1.84,5.84 6.3,10.52 12,12.68 L 20.24,26 0.92,26 Z m 22.54,0 -7.8,13.52 c 1.4,0.3 2.84,0.48 4.34,0.48 4.8,0 9.2,-1.7 12.64,-4.5 L 25.32,22.8 23.46,26 Z"
     id="path6-4"
     style="fill:#a2c0d6;fill-opacity:1"
     inkscape:export-filename="/Volumes/partage/private/marketing/Design/Produits/UMLDesigner/welcomepage/exports/CaptureOff.png"
     inkscape:export-xdpi="90"
     inkscape:export-ydpi="90" />
</svg>
